<svg width="606" height="266" viewBox="0 0 606 266" fill="none" xmlns="http://www.w3.org/2000/svg">
<mask id="path-1-inside-1_2903_149" fill="white">
<path fill-rule="evenodd" clip-rule="evenodd" d="M0 45C0 20.1472 20.1472 0 45 0H561C585.853 0 606 20.1472 606 45V192.952C606 217.805 585.832 237.952 560.979 237.952H109.639L83.6896 265.274L83 266L82.3104 265.274L56.3613 237.952H45.0204C20.1676 237.952 0 217.805 0 192.952V45Z"/>
</mask>
<path d="M109.639 237.952V236.952H109.209L108.914 237.264L109.639 237.952ZM83.6896 265.274L84.4147 265.963L84.4147 265.963L83.6896 265.274ZM83 266L82.2749 266.689L83 267.452L83.7251 266.689L83 266ZM82.3104 265.274L81.5853 265.963L81.5853 265.963L82.3104 265.274ZM56.3613 237.952L57.0864 237.264L56.7907 236.952H56.3613V237.952ZM45 -1C19.5949 -1 -1 19.595 -1 45H1C1 20.6995 20.6995 1 45 1V-1ZM561 -1H45V1H561V-1ZM607 45C607 19.5949 586.405 -1 561 -1V1C585.3 1 605 20.6995 605 45H607ZM607 192.952V45H605V192.952H607ZM560.979 238.952C586.384 238.952 607 218.358 607 192.952H605C605 217.252 585.281 236.952 560.979 236.952V238.952ZM109.639 238.952H560.979V236.952H109.639V238.952ZM84.4147 265.963L110.364 238.641L108.914 237.264L82.9645 264.585L84.4147 265.963ZM83.7251 266.689L84.4147 265.963L82.9645 264.585L82.2749 265.311L83.7251 266.689ZM81.5853 265.963L82.2749 266.689L83.7251 265.311L83.0355 264.585L81.5853 265.963ZM55.6362 238.641L81.5853 265.963L83.0355 264.585L57.0864 237.264L55.6362 238.641ZM45.0204 238.952H56.3613V236.952H45.0204V238.952ZM-1 192.952C-1 218.358 19.6159 238.952 45.0204 238.952V236.952C20.7193 236.952 1 217.252 1 192.952H-1ZM-1 45V192.952H1V45H-1Z" fill="#B9FF66" mask="url(#path-1-inside-1_2903_149)"/>
</svg>
